<?xml version="1.0" standalone="no"?><!DOCTYPE svg PUBLIC "-//W3C//DTD SVG 1.1//EN" "http://www.w3.org/Graphics/SVG/1.1/DTD/svg11.dtd"><svg t="1551838819873" class="icon" style="" viewBox="0 0 1024 1024" version="1.1" xmlns="http://www.w3.org/2000/svg" p-id="2461" xmlns:xlink="http://www.w3.org/1999/xlink" width="32" height="32"><defs><style type="text/css"></style></defs><path d="M512.00472249 203.01006511c-25.46079491 0-47.22359516 9.06206551-65.24884947 27.19114062-18.02525431 18.12907511-27.0428252 39.96108898-27.0428252 65.50592907v30.89902274h184.57346115v-30.89902274c0-25.54484008-9.01757089-47.37685395-27.04282521-65.50592907s-39.78805383-27.19114063-65.23896127-27.19114062z m215.31428102 587.08143942V388.40420377h-430.65822512v401.68730076c0 8.55284969 3.0157444 15.76097378 9.01262679 21.83695797 6.03148956 5.97216338 13.26927673 9.06206551 21.76280024 9.06206551h369.12714594c8.50341097 0 15.73131069-3.08990213 21.77268769-9.06206551 5.98699492-6.08092755 9.01262679-13.28905163 9.01262753-21.83695798h-0.02966308zM511.99977839 141.21201889c20.80863813 0 40.73232848 4.11822196 59.72163239 12.35960925 19.00413543 8.13756649 35.34848274 19.15739422 49.02809785 32.85678569 13.66972766 13.79826746 24.63022923 30.28104275 32.83206598 49.33461618a150.29284878 150.29284878 0 0 1 12.22612535 59.94410479v30.89902274H788.85502602v463.48534699c0 25.54484008-9.01262679 47.37685395-27.04282519 65.50592906-18.01536614 18.12907511-39.78311047 27.19114063-65.24884947 27.19114063H327.43620543c-25.45090746 0-47.22359516-9.06206551-65.24884946-27.19114063C244.1571583 837.46835922 235.14453148 815.63634534 235.14453148 790.09150453V326.60615755h123.04238199v-30.89902274c0-20.91245893 4.07372733-40.88558729 12.23601281-59.9441048 8.17217365-19.15739422 19.10301213-35.53634872 32.83206597-49.33956026 13.69444739-13.69444739 30.02396316-24.71921848 49.0182104-32.85184161A148.47845789 148.47845789 0 0 1 511.99977839 141.21201889z" p-id="2462" fill="#ffffff"></path></svg>